HIERARCHY
ROOT Hips
{
  OFFSET 6.63996 87.0585 -104.547
  CHANNELS 6 Xposition Yposition Zposition Zrotation Xrotation Yrotation
  JOINT LeftUpLeg
  {
    OFFSET 0 11.9945 0
    CHANNELS 3 Zrotation Xrotation Yrotation
    JOINT LeftLeg
    {
      OFFSET 0 0 -41.4872
      CHANNELS 3 Zrotation Xrotation Yrotation
      JOINT LeftFoot
      {
        OFFSET 0 0 -39.7538
        CHANNELS 3 Zrotation Xrotation Yrotation
        JOINT LeftToe
        {
          OFFSET 15.4382 0 0
          CHANNELS 3 Zrotation Xrotation Yrotation
          End Site
          {
            OFFSET 0 0 0
          }
        }
      }
    }
  }
  JOINT RightUpLeg
  {
    OFFSET 0 -11.9945 0
    CHANNELS 3 Zrotation Xrotation Yrotation
    JOINT RightLeg
    {
      OFFSET 0 0 -41.4872
      CHANNELS 3 Zrotation Xrotation Yrotation
      JOINT RightFoot
      {
        OFFSET 0 0 -39.7538
        CHANNELS 3 Zrotation Xrotation Yrotation
        JOINT RightToe
        {
          OFFSET 15.4382 0 0
          CHANNELS 3 Zrotation Xrotation Yrotation
          End Site
          {
            OFFSET 0 0 0
          }
        }
      }
    }
  }
  JOINT Spine
  {
    OFFSET 3.51585 -1.09699 9.96018
    CHANNELS 3 Zrotation Xrotation Yrotation
    JOINT Head
    {
      OFFSET 0.306387 -2.54062 48.4624
      CHANNELS 3 Zrotation Xrotation Yrotation
      End Site
      {
        OFFSET 0 0 0
      }
    }
    JOINT LeftShoulder
    {
      OFFSET 0 0 42.6193
      CHANNELS 3 Zrotation Xrotation Yrotation
      JOINT LeftArm
      {
        OFFSET 0 19.157 -2.10407
        CHANNELS 3 Zrotation Xrotation Yrotation
        JOINT LeftForeArm
        {
          OFFSET 0 0 -26.2788
          CHANNELS 3 Zrotation Xrotation Yrotation
          JOINT LeftHand
          {
            OFFSET 0 0 -26.6372
            CHANNELS 3 Zrotation Xrotation Yrotation
            End Site
            {
              OFFSET 0 0 0
            }
          }
        }
      }
    }
    JOINT RightShoulder
    {
      OFFSET 0 0 42.6193
      CHANNELS 3 Zrotation Xrotation Yrotation
      JOINT RightArm
      {
        OFFSET 0 -19.157 -2.10407
        CHANNELS 3 Zrotation Xrotation Yrotation
        JOINT RightForeArm
        {
          OFFSET 0 0 -26.2788
          CHANNELS 3 Zrotation Xrotation Yrotation
          JOINT RightHand
          {
            OFFSET 0 0 -26.6372
            CHANNELS 3 Zrotation Xrotation Yrotation
            End Site
            {
              OFFSET 0 0 0
            }
          }
        }
      }
    }
  }
}
MOTION
Frames:	10
Frame Time:	0.0333333
5.99335 87.0358 -104.472 -94.0793 6.28242 -82.822 3.27599 4.91849 -22.9125 3.71967e-015 -1.98785e-015 12.9299 -2.2859 -0.783109 18.9008 -8.42385e-015 9.14409e-015 -30.9489 0.782888 8.5334 -0.489119 1.22458e-015 -2.88238e-015 8.30991 -8.58557 -1.05107 6.92833 -6.74359e-015 1.11319e-014 -46.6124 -23.9934 4.43712 -17.6801 26.1676 5.21186 17.3765 8.26633 6.01002 -0.871492 106.057 3.1094 -30.8097 -112.036 -38.0391 -14.0043 4.4893e-005 25.9092 -24.188 -6.37722 -7.15585 -0.797652 -73.6813 -5.46 -29.2271 -0.852028 -1.67789 -115.51 0.00514142 -8.68036 158.125 
6.01624 87.0166 -104.426 -93.9995 5.81345 -82.7339 2.78256 4.87116 -23.1019 4.63404e-015 -2.38542e-015 13.0506 -2.31407 -0.792414 18.8931 -7.04636e-015 8.34896e-015 -30.9491 0.733564 8.52987 -0.536442 4.62874e-015 -4.17448e-015 8.32334 -9.03476 -1.07035 6.70385 -1.84803e-014 8.74653e-015 -46.3615 -23.8707 4.27023 -17.8704 25.6227 4.82663 17.344 8.52409 5.8963 -0.881676 105.704 3.1856 -30.8639 -111.618 -37.9462 -13.6962 0.000251129 25.9125 -24.2083 -6.00079 -7.12557 -0.747159 -72.074 -4.50067 -30.9506 -5.35458 -8.73828 -120.494 0.0281992 -10.3243 155.543 
6.06325 87.0025 -104.349 -93.8504 5.24012 -82.5518 2.1111 4.77273 -23.2836 3.7216e-015 -1.98785e-015 12.9689 -2.29761 -0.79062 18.9788 -3.21857e-015 8.54774e-015 -30.9493 0.431336 8.45326 -0.643471 2.1196e-015 -3.47873e-015 8.37557 -9.33333 -1.05926 6.42153 -5.35653e-015 1.03368e-014 -45.58 -23.6272 4.06403 -18.1991 25.1746 4.75999 17.3363 8.94683 5.81402 -0.913349 105.389 3.12119 -30.8717 -110.89 -38.0202 -13.2294 0.000124883 25.8301 -24.2422 -5.44569 -7.10783 -0.675951 -69.6196 -3.49195 -33.2773 -11.5969 -16.0138 -125.874 0.0472342 -12.469 153.205 
6.12801 86.9956 -104.255 -93.684 4.55476 -82.354 1.14272 4.71056 -23.4734 4.53334e-015 -1.98785e-015 12.8892 -2.12098 -0.733503 19.0717 -3.78832e-015 9.14409e-015 -30.9475 -0.22017 8.34218 -0.756663 1.89068e-015 -1.88845e-015 8.51335 -9.38948 -1.01188 6.09421 -1.28104e-014 1.19271e-014 -44.9031 -23.0093 3.64759 -18.6705 24.2712 4.7118 17.0969 9.09597 5.86269 -0.936725 105.206 3.04258 -30.6914 -110.327 -38.0286 -12.8559 -0.000102881 25.8173 -24.3118 -4.90952 -7.27551 -0.622152 -65.5816 -2.64409 -36.0414 -19.3135 -22.9777 -131.57 0.0569399 -14.8888 150.742 
6.21895 86.9641 -104.171 -93.5719 3.7774 -82.1545 -0.070152 4.76754 -23.7784 1.32262e-015 -2.18663e-015 13.0402 -1.78511 -0.618792 19.1106 -7.85492e-015 8.54774e-015 -30.9398 -0.923118 8.29605 -0.865237 5.14288e-015 -2.08724e-015 8.64259 -9.46012 -0.971536 5.81114 -9.7859e-015 1.27222e-014 -44.6528 -21.8378 2.98267 -19.101 22.6573 4.62714 16.6211 8.70704 6.11461 -0.931625 105.133 2.79855 -30.2117 -109.88 -37.956 -12.5398 0.000253389 25.8637 -24.3759 -4.08068 -7.82346 -0.54586 -60.0294 -2.12126 -39.4688 -27.8266 -29.3561 -137.135 0.0134542 -17.297 148.492 
6.24458 86.907 -104.122 -93.605 2.95598 -81.9058 -1.30118 5.02066 -24.3976 2.89027e-015 -1.78906e-015 13.6741 -1.40681 -0.485959 19.0595 -4.26784e-015 8.34896e-015 -30.9204 -0.98497 8.47503 -1.00125 4.25862e-015 -1.59028e-015 8.52832 -10.1521 -1.03097 5.73795 -3.17738e-015 1.03368e-014 -44.8385 -19.9901 2.15815 -19.1197 20.3804 4.69848 16.1545 7.68898 6.61483 -0.887426 105.037 1.9517 -29.3566 -108.97 -38.0005 -11.9525 0.00146783 25.7938 -24.3301 -2.13364 -8.96844 -0.328537 -53.8346 -2.02601 -44.1803 -36.0019 -35.4283 -141.463 0.00249918 -19.4761 147.562 
6.39393 86.8986 -103.956 -93.6381 2.87328 -81.7488 -1.68753 5.04128 -24.5186 3.76085e-015 -1.98785e-015 13.7507 -1.19394 -0.411857 19.0374 -4.26782e-015 8.34896e-015 -30.9206 -1.17383 8.40636 -0.977134 1.78321e-015 -1.19271e-015 8.38303 -9.93762 -1.02263 5.8176 -6.15053e-015 1.19271e-014 -44.169 -17.5555 1.99515 -19.1527 18.1447 3.76993 15.5684 8.23391 4.87415 -0.700549 100.93 1.12795 -29.7342 -106.28 -37.3607 -10.0613 0.00171631 25.0768 -24.8289 0.653682 -10.4859 0.147845 -44.5378 -4.659 -51.0552 -44.404 -45.6387 -144.478 0.00509856 -22.2187 147.131 
6.50225 86.8994 -103.875 -93.6474 3.05405 -81.7326 -1.30253 4.8995 -24.5223 3.81977e-015 -2.18663e-015 13.9389 -1.32479 -0.448894 18.7453 -5.76313e-015 8.94531e-015 -30.9333 -1.23871 8.29668 -0.929062 2.54258e-015 -8.94531e-016 8.36416 -9.63113 -1.0093 5.92815 -7.66711e-015 1.27222e-014 -43.4071 -14.4218 1.42117 -18.7948 15.4966 2.9972 14.8583 7.99673 3.82143 -0.539891 97.197 0.134585 -29.5759 -103.769 -36.4972 -8.31177 -0.000212716 24.8462 -24.7838 3.70312 -12.3868 0.849672 -35.4624 -8.9637 -59.2636 -35.9008 -56.3698 -130.819 0.0185217 -21.0251 147.474 
6.5766 86.9409 -103.766 -93.6346 3.36239 -81.8163 -0.765156 4.72568 -24.3953 4.54732e-015 -1.78906e-015 14.0755 -1.43636 -0.481976 18.5461 -6.00046e-015 8.54774e-015 -30.944 -1.37733 8.14342 -0.811233 2.93725e-015 -3.57812e-015 8.36567 -9.12922 -0.988583 6.13649 -1.13593e-014 1.11319e-014 -43.5759 -11.0056 0.925094 -18.2285 12.637 1.99961 14.0873 7.20533 2.71823 -0.354179 94.1448 -1.01589 -29.864 -101.563 -36.0442 -6.86965 -0.0018121 24.5812 -24.4278 7.36295 -14.7408 1.96885 -28.8319 -12.0306 -71.1726 3.80928 -69.4608 -88.2137 -0.00448595 -20.9021 148.165 
6.65715 86.9855 -103.721 -93.6106 3.51207 -81.8338 -0.40749 4.56298 -24.2221 4.68693e-015 -2.38542e-015 13.9156 -1.47156 -0.496468 18.6189 -4.9542e-015 8.74653e-015 -30.9439 -1.83375 7.98564 -0.615863 8.6035e-016 -3.97569e-016 8.16784 -8.43306 -0.961659 6.46945 -6.89595e-015 1.11319e-014 -44.5222 -7.22691 0.458178 -17.5462 9.24865 0.874307 13.1659 6.16478 1.77025 -0.190654 91.4092 -2.48143 -30.2469 -99.7866 -35.8591 -5.77316 -0.00017186 24.2117 -24.1371 11.1788 -17.5003 3.44121 -25.8384 -14.558 -82.0337 64.0384 -54.1868 -19.2986 0.150359 -21.1684 149.878 
